<svg xmlns="http://www.w3.org/2000/svg" viewBox="0 0 128 128" fill="none">
	<rect width="128" height="128" rx="28" fill="#003399"/>
	<g fill="#FFCC00">
		<circle cx="64" cy="34" r="3"/>
		<circle cx="71.5" cy="35.5" r="3"/>
		<circle cx="77.5" cy="40" r="3"/>
		<circle cx="80" cy="47" r="3"/>
		<circle cx="77.5" cy="54" r="3"/>
		<circle cx="71.5" cy="58.5" r="3"/>
		<circle cx="64" cy="60" r="3"/>
		<circle cx="56.5" cy="58.5" r="3"/>
		<circle cx="50.5" cy="54" r="3"/>
		<circle cx="48" cy="47" r="3"/>
		<circle cx="50.5" cy="40" r="3"/>
		<circle cx="56.5" cy="35.5" r="3"/>
	</g>
	<g fill="#fff" opacity=".9">
		<rect x="22" y="74" width="14" height="12" rx="3"/>
		<rect x="39" y="74" width="14" height="12" rx="3"/>
		<rect x="56" y="74" width="14" height="12" rx="3"/>
		<rect x="73" y="74" width="14" height="12" rx="3"/>
		<rect x="90" y="74" width="14" height="12" rx="3"/>
		<rect x="30" y="90" width="14" height="12" rx="3"/>
		<rect x="47" y="90" width="14" height="12" rx="3"/>
		<rect x="64" y="90" width="14" height="12" rx="3"/>
		<rect x="81" y="90" width="14" height="12" rx="3"/>
	</g>
</svg>
